<?xml version="1.0" encoding="utf-8"?>
<!-- Generator: Adobe Illustrator 24.1.0, SVG Export Plug-In . SVG Version: 6.00 Build 0)  -->
<svg version="1.1" id="Ebene_1" xmlns="http://www.w3.org/2000/svg" xmlns:xlink="http://www.w3.org/1999/xlink" x="0px" y="0px"
	 viewBox="0 0 439.4 439.4" style="enable-background:new 0 0 439.4 439.4;" xml:space="preserve">
<style type="text/css">
	.st0{fill:#001F47;}
</style>
<path class="st0" d="M219.7,432.3c117.8,0,212.6-95.2,212.6-212.6c0-117.8-94.8-212.6-212.6-212.6C102.3,7.1,7.1,101.9,7.1,219.7
	C7.1,337,102.3,432.3,219.7,432.3 M315.4,311.5l17.9-17H329c-45.1,0-85.5-14.9-108.9-40c19.6-11.9,43.8-17.4,77.4-17.4
	c8.9,0,21.7,0.8,33.6,2.1l10.2-9.8c-17.4-2.1-34-3-48-3c-11.5,0-21.7,0.4-32.3,1.3l7.6-9.4c6-0.4,18.7-0.9,27.2-0.9
	c22.5,0,37.4,0.9,54.4,3.4l9.8-9.4c-17.9-3-42.5-4.7-65.1-4.7c-4.7,0-10.6,0-18.3,0.4l5.5-9.4h8.9c31.9,0,55.7,1.7,77.4,5.5l9.8-9.4
	c-24.2-4.2-53.6-6.8-83.3-6.8h-7.2l4.7-8.9h8.1c31,0,59.1,2.5,86.3,7.7l10.2-9.8c-30.6-6-63.4-8.9-98.7-8.9
	c-15.3,0-30.6,0.8-45.1,2.1c-17,36.6-44.2,57.8-74.8,57.4c-11.9-0.4-26.8-5.5-45.9-15.7L114.7,201l5.5-5.1l41.2,17.9l8.9-6.8
	L87,169.1l-12.8,9.8l-29.8-12.3l0.4,12.3c40,18.3,56.5,28.5,98.6,58.7C198.4,276.7,247.3,297.9,315.4,311.5 M219.7,417
	c-108.4,0-197.3-88.9-197.3-197.3c0-108.9,88.9-197.3,197.3-197.3c108.9,0,197.3,88.4,197.3,197.3C417,328.1,328.5,417,219.7,417"/>
</svg>
