<?xml version="1.0" encoding="utf-8"?>
<!-- Generator: Adobe Illustrator 24.1.0, SVG Export Plug-In . SVG Version: 6.00 Build 0)  -->
<svg version="1.1" id="Ebene_1" xmlns="http://www.w3.org/2000/svg" xmlns:xlink="http://www.w3.org/1999/xlink" x="0px" y="0px"
	 viewBox="0 0 600 600" style="enable-background:new 0 0 600 600;" xml:space="preserve">
<style type="text/css">
	.st0{fill:#D81E05;}
</style>
<path class="st0" d="M600,149.6c-0.2-1.3-1.4-2.2-2.7-2.2c-147.8,6.6-294.6,26.1-439,58.3c29.8-5.7,29.8-5.7-0.1,0l-11.1,2.5
	c-35.2,8-70.1,16.7-104.8,26.2l-6.6,1.8c-0.7,0.2-1.1,0.9-0.9,1.6c0.1,0.5,0.5,0.8,1,0.9l37.3,5.3l65.2,9.3c0.3,0,0.5,0,0.7-0.1
	c45.9-21.9,76.5-30.3,83.3-20.8c2.1,2.9,1.7,7.5-0.7,13.4c-0.9,2.2-2,4.3-3.2,6.4l0,0C201.7,281.9,145,336.4,65.6,400
	c-20.3,16.2-42.1,33.1-65,50.3c-0.6,0.4-0.7,1.2-0.3,1.8c0.3,0.4,0.8,0.6,1.3,0.5l94.1-16.4c0.2,0,0.4-0.1,0.6-0.3
	C242.6,308.4,413.4,212,598.2,152.6C599.4,152.2,600.2,150.9,600,149.6z"/>
</svg>
