<svg xmlns="http://www.w3.org/2000/svg" xmlns:xlink="http://www.w3.org/1999/xlink" viewBox="0 0 100 100" enable-background="new 0 0 100 100"><style type="text/css">.st0{clip-path:url(#SVGID_2_);fill:#F99D1C;}</style><defs><path id="SVGID_1_" d="M18.1 7h63.7v86.1H18.1z"/></defs><clipPath id="SVGID_2_"><use xlink:href="#SVGID_1_" overflow="visible"/></clipPath><path class="st0" d="M31.9 85.7s11.5-17.2 12.5-18.9c1.3-2.1 1.3-5.4.2-7.2-.6-.9-17.7-28.1-17.7-28.1-1.5-2.9-1.2-4.9-.1-6.4 1.7-2.5 4.7-6.9 4.7-6.9s20.8 32.7 21.7 34.1c2.2 3.7 1.6 7.4-.2 10.5-1.5 2.6-15 22.8-15 22.8h-6.1zM28.2 87.5S41.5 68 42.5 66.4c1.2-2 1-4.8 0-6.4-.6-.9-19.1-30-19.1-30s-3.3 5-4.3 6.5-1.6 3.4.1 6.5c0 0 13.2 20.9 13.8 21.8 1.1 1.7 1 4.8-.2 6.8C31.9 73.1 18.2 93 18.2 93h39.4c4 0 6.2-1.6 8.1-4.3 1.7-2.4 8.2-11.8 9.2-13.3s3-2.5 3.8-2.5h3.1l-6-9.1h-9.6c-1.8 0-4 1.6-5.2 3.4-.9 1.4-7.5 11.2-8.6 12.8-.7.9-1.2 1.1-1.8 1.1h-1.2c.4-.8 11.4-16.8 13.6-20.3 2.6-4.3 3.2-10.1.1-15.6C61.9 43.1 39 7 39 7s-3.1 4.4-4.3 6.3c-1 1.5-1.3 3.5.1 6.5 0 0 19.2 30.6 20.1 32 2.2 3.5 2 8.1 0 11.3C53.3 65.7 40 85.8 40 85.8h10.5c3.8 0 4.7-1.4 5.8-2.6 1-1.2 6.8-9.9 7.4-10.8.7-.9 2.3-3.5 4.5-3.5h6.9v.1c-1.5.3-2.9 1.2-4 2.6-1 1.4-8 11.7-8.8 12.9-1.1 1.5-2.3 2.9-5.3 2.9H28.2z"/></svg>