<?xml version="1.0" encoding="utf-8"?>
<!-- Generator: Adobe Illustrator 21.1.0, SVG Export Plug-In . SVG Version: 6.00 Build 0)  -->
<svg version="1.1" id="Calque_1" xmlns="http://www.w3.org/2000/svg" xmlns:xlink="http://www.w3.org/1999/xlink" x="0px" y="0px"
	 viewBox="0 0 32 32" style="enable-background:new 0 0 32 32;" xml:space="preserve">
<style type="text/css">
	.st0{fill:#FFFFFF;}
	.st1{fill:#003399;}
	.st2{fill:#BCC1C2;}
</style>
<path class="st0" d="M16,0C7.2,0,0,7.2,0,16s7.2,16,16,16s16-7.2,16-16S24.8,0,16,0L16,0z"/>
<g id="Calque_1_1_">
</g>
<path class="st1" d="M31.6,16c0-8.6-7-15.6-15.6-15.6c-1.9,0-3.7,0.4-5.4,1c1.3,0.4,2.6,0.8,3.9,1.4c3.2,1.6,6.1,4,8.2,6.9
	c2.3,3.1,3.8,6.8,4.3,10.7c0.3,2.3,0.2,4.6-0.2,6.8C29.7,24.3,31.6,20.4,31.6,16z"/>
<path class="st1" d="M8.7,16.3C10,14.1,11,11.5,11,8.9c0-1.1-0.2-2.3-0.7-3.3C9.8,4.4,8.9,3.5,7.8,2.8C7.6,2.9,7.4,3,7.3,3.1
	c0,0,0,0,0,0.1c0,0-0.1,0-0.2,0c-0.4,0.3-0.8,0.6-1.2,1c0.8-0.1,1.7-0.3,2.6-0.3c0.4,0.3,0.8,0.8,1,1.2C8.4,5.1,7.4,5,6.3,5.2
	c0.1,0.3,0.2,0.6,0.3,0.9c1.1,0,2.3,0,3.4,0.2c0.2,0.5,0.3,1.1,0.4,1.6C9.1,7.7,7.9,7.5,6.7,7.4c0,0.4,0,0.8-0.1,1.2
	C7.9,8.7,9.1,9,10.4,9.3c0,0.6-0.1,1.2-0.3,1.8c-1.3-0.4-2.5-0.8-3.8-1c-0.1,0.6-0.3,1.1-0.6,1.7c1.3,0.4,2.5,1,3.8,1.6
	c-0.2,0.5-0.4,1-0.7,1.5c-0.1,0-0.3-0.1-0.4-0.2c-1-0.7-2.1-1.2-3.3-1.7c-0.4,0.8-0.9,1.4-1.4,2.1c1.2,0.7,2.3,1.5,3.5,2.4
	c-0.3,0.4-0.7,0.9-1,1.3C5.1,17.9,4,17,2.9,16.1c-0.2,0.1-0.3,0.3-0.4,0.5c-0.5,0.6-1.1,1.1-1.7,1.6c0,0.1,0.1,0.1,0.1,0.2
	c0.9,1,1.8,2,2.7,3c-0.3,0.4-0.7,0.7-1.1,0.9l-0.1-0.1c-0.4-0.6-0.9-1.1-1.3-1.6c0.3,0.9,0.7,1.8,1.1,2.7c0.6-0.4,1.2-0.8,1.7-1.4
	C5.8,20.3,7.4,18.4,8.7,16.3z"/>
<path class="st1" d="M10.6,22.3c1.5-1.8,2.9-3.9,3.8-6.1c0.9-2.1,1.4-4.4,1.1-6.7c-0.3-2.1-1.4-4.1-3-5.4c-0.8-0.7-1.8-1.3-2.8-1.7
	C9.5,2.3,9.2,2.2,9,2.1C8.8,2.2,8.7,2.3,8.5,2.4c0.3,0.1,0.6,0.2,1,0.3C9.7,2.8,9.9,2.8,10.1,3C9.6,3,9.2,3,8.7,3
	c0,0.1,0.1,0.2,0.2,0.2c0.2,0.2,0.4,0.4,0.6,0.6c0.7,0,1.3,0,2,0c0.1,0,0.3,0.1,0.4,0.2c0.6,0.4,1.1,1,1.5,1.6c-0.2,0-0.4,0-0.6-0.1
	c-0.8-0.2-1.5-0.2-2.3-0.3c0.1,0.4,0.3,0.7,0.4,1.1C12,6.5,13.1,6.7,14.2,7c0.3,0.7,0.5,1.4,0.7,2.1c0,0.1-0.2,0-0.3,0
	c-1.1-0.4-2.2-0.8-3.4-1c0,0.5,0.1,0.9,0,1.4c1.3,0.4,2.6,0.8,3.8,1.4c0,0.7-0.1,1.5-0.2,2.2c-0.3-0.1-0.5-0.2-0.7-0.3
	c-1-0.5-2-1-3.1-1.3c-0.2,0.7-0.4,1.5-0.6,2.2c-0.1,0.1,0.1,0.2,0.1,0.2c1.2,0.6,2.4,1.3,3.5,2c-0.2,0.6-0.5,1.2-0.8,1.8
	c-0.4-0.2-0.7-0.5-1-0.7c-0.8-0.5-1.7-1.1-2.6-1.6c-0.4,0.9-1,1.8-1.6,2.6c0.2,0.2,0.4,0.4,0.7,0.6c0.9,0.7,1.7,1.4,2.6,2.1
	c-0.3,0.6-0.8,1.1-1.2,1.6c-1-1-2-2-3.1-2.8c-0.4,0.6-0.9,1.1-1.4,1.6c-0.4,0.4-0.8,0.7-1.2,1.1c0.1,0.2,0.2,0.3,0.3,0.4
	c0.8,0.9,1.6,1.8,2.3,2.8c-0.4,0.4-0.8,0.8-1.3,1.1c-0.9-1.1-1.7-2.2-2.6-3.3c-0.2,0.2-0.4,0.3-0.6,0.5c0.8,1.4,1.8,2.6,2.9,3.7
	C7.3,25.9,9.1,24.2,10.6,22.3z"/>
<path class="st1" d="M3.2,15.4c1.4-1.7,2.5-3.7,3-5.9C6.5,8,6.4,6.3,5.7,4.9c0-0.1-0.1-0.2-0.2-0.3C5.4,4.7,5.2,4.8,5.1,4.9
	C5.2,5,5.3,5.2,5.3,5.3c-0.2,0-0.4,0-0.6,0.1C4.4,5.7,4.1,6,3.8,6.3C4.4,6.3,5,6.2,5.6,6.2C5.7,6.6,5.8,7,5.8,7.4
	c-0.9,0-1.8,0-2.8,0C2.8,7.7,2.7,8,2.5,8.3c1.1,0,2.2,0,3.3,0.1c0,0.5-0.1,0.9-0.3,1.4C4.4,9.5,3.2,9.4,2,9.3
	c-0.2,0.4-0.4,0.8-0.5,1.3c1.1,0.3,2.3,0.6,3.4,1c-0.2,0.4-0.4,0.8-0.6,1.1c-0.2,0-0.4-0.2-0.6-0.2c-0.9-0.3-1.7-0.7-2.6-1
	c-0.2,0.6-0.3,1.2-0.4,1.9c0.8,0.4,1.5,0.9,2.2,1.3c0.1,0.1,0,0.2-0.1,0.2c-0.2,0.3-0.4,0.5-0.6,0.8c-0.6-0.4-1.1-0.8-1.7-1.2
	c-0.1,0.5-0.1,1.1-0.1,1.6c0,0.7,0.1,1.4,0.2,2C1.5,17.2,2.4,16.3,3.2,15.4z"/>
<path class="st1" d="M15.6,23.3c1.6-2.4,2.9-5,3.4-7.8c0.5-2.5,0.1-5.2-1.1-7.5c-0.5-1-1.2-2-2.1-2.8c-0.9-0.9-2-1.5-3.2-1.8
	c-0.3-0.1-0.6-0.2-1-0.3c0.4,0.3,0.9,0.6,1.2,1c0.3,0.2,0.7,0.1,1,0.2c1,0.6,1.9,1.4,2.6,2.3c-0.6-0.3-1.3-0.4-2-0.6
	c0.3,0.4,0.5,0.8,0.7,1.3c0.7,0.2,1.4,0.5,2.1,0.7c0.2,0,0.2,0.3,0.3,0.4c0.3,0.7,0.6,1.5,0.7,2.3c-0.8-0.4-1.7-0.8-2.5-1.2
	c0.1,0.6,0.1,1.1,0.1,1.7c0.9,0.4,1.8,0.9,2.7,1.4c0,0.9-0.1,1.7-0.2,2.6c-0.9-0.6-1.8-1.3-2.8-1.7c-0.2,0.9-0.5,1.8-0.8,2.7
	c1,0.6,1.9,1.3,2.8,2c-0.2,0.7-0.6,1.4-0.9,2c-0.7-0.6-1.4-1.2-2.1-1.7c-0.2-0.1-0.4-0.3-0.6-0.4c-0.5,0.8-0.9,1.6-1.5,2.4
	c-0.2,0.2-0.4,0.5-0.5,0.7c0.9,0.8,1.8,1.7,2.6,2.6c-0.4,0.6-0.8,1.2-1.4,1.7c-0.8-0.9-1.7-1.8-2.5-2.6C9.7,24,8.7,25.1,7.5,26
	c0.8,0.9,1.6,1.8,2.3,2.8c-0.4,0.3-0.7,0.6-1.1,0.9c0.2,0.1,0.4,0.2,0.6,0.3C11.7,28,13.9,25.8,15.6,23.3z"/>
<path class="st1" d="M16.4,28.6c2.3-2.8,4.2-5.9,5.1-9.4c0.5-2.1,0.6-4.3,0.1-6.4C21.2,10.9,20.3,9,19,7.5c-0.3-0.4-0.8-0.4-1.2-0.6
	c0.2,0.4,0.5,0.9,0.7,1.3c0,0.1,0.1,0.2,0.2,0.2c0.3,0.1,0.6,0.2,0.9,0.4c0.1,0.1,0.2,0.3,0.3,0.4c0.5,0.9,1,1.9,1.2,2.9
	c-0.5-0.3-1-0.6-1.6-0.9c0.1,0.6,0.1,1.3,0.1,1.9c0.6,0.4,1.2,0.9,1.8,1.4c0.1,1,0,2-0.1,3c-0.5-0.4-1-0.9-1.5-1.3
	c-0.2-0.1-0.3-0.3-0.5-0.3c-0.2,1-0.5,1.9-0.8,2.8c0,0.1-0.1,0.2,0,0.2c0.7,0.6,1.4,1.2,2,1.9c-0.3,0.7-0.6,1.5-1,2.2
	c-0.4-0.5-0.9-0.9-1.4-1.4c-0.3-0.2-0.5-0.5-0.8-0.6c-0.2,0.4-0.4,0.7-0.6,1.1c-0.5,0.8-1,1.6-1.6,2.3c0.6,0.6,1.1,1.2,1.7,1.9
	c0.1,0.1,0.3,0.3,0.3,0.4c-0.2,0.3-0.5,0.6-0.7,0.9c-0.2,0.2-0.4,0.6-0.7,0.8c-0.6-0.8-1.3-1.5-2-2.3c-1,1.2-2.1,2.3-3.3,3.4
	c0.4,0.4,0.7,0.9,1.1,1.4c0.7,0.2,1.4,0.4,2.2,0.5C14.7,30.5,15.5,29.6,16.4,28.6z"/>
<path class="st1" d="M23.8,15.2c-0.4-2.1-1.3-4.1-2.8-5.7C20.8,9.3,20.7,9,20.4,9c0,0.2,0.1,0.3,0.2,0.4c1,1.2,1.8,2.6,2.3,4.2
	c-0.3-0.2-0.6-0.4-0.9-0.6c0.1,0.8,0.2,1.5,0.3,2.3c0.5,0.3,0.8,0.7,1.2,1.1c0.1,1.1,0.1,2.3-0.1,3.4c-0.5-0.5-0.9-1-1.4-1.5
	c-0.2,1.1-0.5,2.2-0.9,3.2c0.5,0.6,1,1.2,1.5,1.9c-0.3,0.8-0.5,1.6-1,2.3c-0.5-0.7-1-1.3-1.5-1.9c-0.7,1.3-1.5,2.5-2.3,3.7
	c0.6,0.7,1.1,1.4,1.6,2.1c-0.5,0.6-0.9,1.2-1.5,1.8c-0.5-0.7-1.1-1.4-1.6-2.1c-0.2,0.1-0.3,0.3-0.5,0.5c-0.5,0.6-1,1.1-1.5,1.6
	c0,0,0,0-0.1,0.1c0.6,0.1,1.2,0.1,1.8,0.1c0.9,0,1.8-0.1,2.7-0.2c2.2-2.7,4-5.8,4.8-9.1C24.1,19.9,24.3,17.5,23.8,15.2z"/>
<path class="st1" d="M25.3,22.1c0.2-1.2,0.3-2.5,0.2-3.7c-0.1-1.1-0.5-2.2-1-3.3c-0.1-0.3-0.2-0.6-0.5-0.7c0.2,0.8,0.3,1.5,0.3,2.3
	c0,0.1,0,0.3,0.1,0.4c0.2,0.3,0.4,0.5,0.6,0.8c0.1,1.1,0,2.3-0.2,3.4c-0.2-0.2-0.3-0.4-0.5-0.6c0,0-0.2-0.2-0.2,0
	c-0.2,1.2-0.5,2.3-0.9,3.4c0.2,0.4,0.5,0.8,0.7,1.2c-0.2,0.6-0.4,1.2-0.6,1.7c-0.1,0.2-0.2,0.5-0.3,0.7c-0.2-0.4-0.5-0.8-0.7-1.2
	h-0.1c-0.7,1.3-1.5,2.5-2.3,3.7c0.1,0.3,0.3,0.5,0.4,0.8c0.7-0.2,1.4-0.5,2-0.8c0.4-0.7,0.8-1.5,1.2-2.3
	C24.4,26.1,25,24.1,25.3,22.1z"/>
<path class="st1" d="M26.1,21c-0.2-0.1-0.2,0.3-0.2,0.4c0,0.4-0.1,0.8-0.1,1.2c-0.1-0.1-0.1-0.1-0.2-0.2c-0.2,1.2-0.5,2.3-0.9,3.4
	c-0.2,0.4,0.4,0.8,0.2,1.2c-0.3,0.7-0.5,1.5-0.8,2.2c-0.1-0.3-0.3-0.5-0.4-0.8c-0.3,0.5-0.6,1-0.9,1.6c0.7-0.4,1.4-0.8,2.1-1.2
	c0.3-0.7,0.5-1.4,0.7-2.2C25.9,24.9,26.3,23,26.1,21z"/>
<path class="st1" d="M26.1,25.5c-0.2,1-0.5,1.9-0.7,2.9c0.2-0.1,0.4-0.3,0.6-0.4c0.1-0.8,0.3-1.6,0.3-2.5H26.1z"/>
<path class="st2" d="M16,1c8.3,0,15,6.7,15,15s-6.7,15-15,15S1,24.3,1,16S7.7,1,16,1 M16,0C7.2,0,0,7.2,0,16s7.2,16,16,16
	s16-7.2,16-16S24.8,0,16,0L16,0z"/>
</svg>
